<svg xmlns="http://www.w3.org/2000/svg" viewBox="0 0 120 120" width="100%" height="100%">
  <defs>
    <clipPath id="app-icon-clip">
      <rect x="10" y="10" width="100" height="100" rx="20" />
    </clipPath>
  </defs>

  <rect x="10" y="10" width="100" height="100" rx="20" fill="#ffffff" />

  <rect x="10" y="75" width="100" height="35" fill="#66a152" clip-path="url(#app-icon-clip)" />

  <path d="M 32 38 L 38 46 V 78" fill="none" stroke="#1b2a36" stroke-width="2.5" stroke-linejoin="round" />
  <path d="M 88 38 L 82 46 V 78" fill="none" stroke="#1b2a36" stroke-width="2.5" stroke-linejoin="round" />

  <path d="M 22 78 V 38 A 10 10 0 0 1 32 28 H 88 A 10 10 0 0 1 98 38 V 78 H 88 V 38 A 2 2 0 0 0 86 36 H 34 A 2 2 0 0 0 32 38 V 78 Z" fill="#497897" stroke="#1b2a36" stroke-width="2.5" stroke-linejoin="round" />

  <text x="60" y="60" font-family="system-ui, -apple-system, sans-serif" font-weight="900" font-size="25" text-anchor="middle" dominant-baseline="middle" fill="#1b252b" stroke="#ffffff" stroke-width="4.5" stroke-linejoin="round" paint-order="stroke fill" letter-spacing="-0.5">fcmoim</text>

  <rect x="10" y="10" width="100" height="100" rx="20" fill="none" stroke="#1b2a36" stroke-width="2.5" />
</svg>